<?xml version="1.0" encoding="UTF-8"?>
<svg version="1.1" xmlns="http://www.w3.org/2000/svg" width="408" height="612">
<path d="M0 0 C0.78964645 0.00202423 1.57929291 0.00404846 2.39286804 0.00613403 C3.63425789 0.00350555 3.63425789 0.00350555 4.90072632 0.00082397 C7.65008104 -0.00359537 10.39937199 -0.00065627 13.14872742 0.00271606 C15.0506237 0.00204305 16.9525199 0.00107304 18.85441589 -0.00018311 C22.84591997 -0.00166019 26.83740171 0.00049482 30.8289032 0.00515747 C35.95738248 0.01085476 41.08580944 0.00757582 46.2142868 0.00158501 C50.14321795 -0.00202032 54.0721366 -0.00088215 58.00106812 0.0017128 C59.89259853 0.00238215 61.78413007 0.00155338 63.67565918 -0.00076675 C66.31449918 -0.00329282 68.95325323 0.00054665 71.59208679 0.00613403 C72.77655647 0.00309769 72.77655647 0.00309769 73.98495483 0 C79.3782149 0.02126605 79.3782149 0.02126605 80.49247742 1.13552856 C80.59984887 2.48846532 80.63926379 3.84688275 80.6506958 5.20402527 C80.66048462 6.08047195 80.67027344 6.95691864 80.68035889 7.85992432 C80.68611435 8.82880585 80.69186981 9.79768738 80.69779968 10.79592896 C80.70769928 11.81044632 80.71759888 12.82496368 80.72779846 13.870224 C80.7595187 17.24118677 80.78421232 20.61216367 80.80888367 23.98318481 C80.82944412 26.31346514 80.85044033 28.64374166 80.87185669 30.97401428 C80.92717127 37.12085903 80.97653901 43.26773796 81.02470398 49.41464233 C81.07485065 55.68166156 81.1305723 61.94863088 81.18583679 68.21560669 C81.2935331 80.52220473 81.39495242 92.82884601 81.49247742 105.13552856 C82.48247742 103.65052856 82.48247742 103.65052856 83.49247742 102.13552856 C84.15247742 102.13552856 84.81247742 102.13552856 85.49247742 102.13552856 C85.71935242 101.60056763 85.94622742 101.06560669 86.17997742 100.51443481 C87.9099685 97.37882598 90.17019996 94.77682303 92.49247742 92.07302856 C94.9691373 89.16826034 97.37035974 86.31870508 99.49247742 83.13552856 C100.15247742 83.13552856 100.81247742 83.13552856 101.49247742 83.13552856 C101.55435242 82.57865356 101.61622742 82.02177856 101.67997742 81.44802856 C102.82546326 78.18779963 105.04121345 76.55532124 107.49247742 74.13552856 C109.05834138 72.30175099 110.60032726 70.44730857 112.11747742 68.57302856 C112.87286804 67.6436145 113.62825867 66.71420044 114.40653992 65.75662231 C115.69540553 64.13709267 116.94885215 62.48773599 118.14091492 60.79568481 C118.80993835 59.97390747 118.80993835 59.97390747 119.49247742 59.13552856 C120.15247742 59.13552856 120.81247742 59.13552856 121.49247742 59.13552856 C121.82247742 57.81552856 122.15247742 56.49552856 122.49247742 55.13552856 C123.15247742 55.13552856 123.81247742 55.13552856 124.49247742 55.13552856 C124.71806335 54.60056763 124.94364929 54.06560669 125.17607117 53.51443481 C126.91896074 50.36482131 129.20468538 47.77568402 131.55497742 45.07302856 C132.54527547 43.91869341 133.53484673 42.76373441 134.52372742 41.60818481 C135.02001648 41.02955688 135.51630554 40.45092896 136.02763367 39.85476685 C138.2343888 37.26477191 140.39703777 34.6413933 142.55497742 32.01052856 C143.26782898 31.14170044 143.98068054 30.27287231 144.71513367 29.37771606 C146.60125133 27.06138305 146.60125133 27.06138305 148.49247742 24.13552856 C149.15247742 24.13552856 149.81247742 24.13552856 150.49247742 24.13552856 C150.73739929 23.58252075 150.98232117 23.02951294 151.23466492 22.45974731 C152.74889844 19.66170711 154.58779352 17.39850059 156.61747742 14.94802856 C157.7041571 13.62738403 157.7041571 13.62738403 158.81278992 12.28005981 C159.4604985 11.5628476 159.4604985 11.5628476 160.12129211 10.83114624 C161.58888639 9.12803447 161.58888639 9.12803447 162.67689514 6.89059448 C165.01011816 3.19308784 167.29445607 0.63664938 171.70228958 -0.36828041 C178.78212809 -1.17466329 185.91374243 -0.89422053 193.02372742 -0.74337769 C195.34397408 -0.72657973 197.66425278 -0.71377417 199.98454285 -0.70478821 C206.07468183 -0.6705182 212.16287133 -0.58219141 218.25224304 -0.48245239 C224.47267792 -0.39018126 230.6934296 -0.34923674 236.91435242 -0.30392456 C249.10791461 -0.20756707 261.30003355 -0.05407668 273.49247742 0.13552856 C274.65653992 4.84646606 274.65653992 4.84646606 273.17997742 7.44802856 C272.62310242 8.00490356 272.06622742 8.56177856 271.49247742 9.13552856 C270.83247742 9.13552856 270.17247742 9.13552856 269.49247742 9.13552856 C269.27204773 9.67564575 269.05161804 10.21576294 268.82450867 10.77224731 C267.05142239 13.91804554 264.65655765 16.35487931 262.17997742 18.94802856 C259.03138884 22.29548075 256.01859855 25.57277033 253.42997742 29.38552856 C252.79060242 30.29302856 252.15122742 31.20052856 251.49247742 32.13552856 C250.83247742 32.13552856 250.17247742 32.13552856 249.49247742 32.13552856 C249.27462585 32.67177856 249.05677429 33.20802856 248.83232117 33.76052856 C247.02187533 36.96971536 244.57494326 39.48085789 242.05497742 42.13552856 C238.23123277 46.1683772 238.23123277 46.1683772 234.76982117 50.51052856 C234.34829773 51.04677856 233.92677429 51.58302856 233.49247742 52.13552856 C232.83247742 52.13552856 232.17247742 52.13552856 231.49247742 52.13552856 C231.22048523 52.71431763 230.94849304 53.29310669 230.66825867 53.88943481 C227.60261763 59.74572584 223.19305908 64.54959524 218.49247742 69.13552856 C214.01720037 73.79636332 214.01720037 73.79636332 210.49247742 79.13552856 C209.83247742 79.13552856 209.17247742 79.13552856 208.49247742 79.13552856 C207.50247742 81.11552856 207.50247742 81.11552856 206.49247742 83.13552856 C205.83247742 83.13552856 205.17247742 83.13552856 204.49247742 83.13552856 C204.43060242 83.69240356 204.36872742 84.24927856 204.30497742 84.82302856 C203.15600331 88.09318563 200.98049054 89.76599226 198.49247742 92.13552856 C197.93560242 92.89865356 197.37872742 93.66177856 196.80497742 94.44802856 C196.37185242 95.00490356 195.93872742 95.56177856 195.49247742 96.13552856 C194.83247742 96.13552856 194.17247742 96.13552856 193.49247742 96.13552856 C193.23724304 96.70787231 192.98200867 97.28021606 192.71903992 97.86990356 C191.36160583 100.37726589 189.77273638 102.26857417 187.86747742 104.38552856 C187.23583679 105.09193481 186.60419617 105.79834106 185.95341492 106.52615356 C185.47130554 107.05724731 184.98919617 107.58834106 184.49247742 108.13552856 C186.20315091 112.76929464 188.61142594 116.67683987 191.25028992 120.83084106 C192.49247742 123.13552856 192.49247742 123.13552856 192.49247742 126.13552856 C193.15247742 126.13552856 193.81247742 126.13552856 194.49247742 126.13552856 C195.66239929 127.73342896 195.66239929 127.73342896 196.96122742 129.98318481 C197.44518982 130.80907104 197.92915222 131.63495728 198.42778015 132.48587036 C199.2023053 133.82838867 199.2023053 133.82838867 199.99247742 135.19802856 C203.80605554 141.69594099 207.6894921 148.09438395 211.92997742 154.32302856 C215.0270048 158.88225506 217.94472809 163.46383569 220.53153992 168.33474731 C221.39312515 169.94934402 222.34398056 171.5155509 223.30497742 173.07302856 C224.49247742 175.13552856 224.49247742 175.13552856 224.49247742 177.13552856 C225.15247742 177.13552856 225.81247742 177.13552856 226.49247742 177.13552856 C228.53417226 180.04101739 229.49247742 181.53694902 229.49247742 185.13552856 C230.15247742 185.13552856 230.81247742 185.13552856 231.49247742 185.13552856 C231.91206726 185.91863403 231.91206726 185.91863403 232.34013367 186.71755981 C235.22539272 192.01493255 238.34082262 197.11148337 241.60575867 202.18240356 C243.60502971 205.31169737 245.55278481 208.46898976 247.49247742 211.63552856 C251.09636768 217.510078 254.77819326 223.33036592 258.49247742 229.13552856 C260.19268653 231.81068276 261.89187555 234.48647914 263.59013367 237.16287231 C265.00348713 239.37141848 266.42768145 241.57063454 267.86357117 243.76443481 C268.26849792 244.38600464 268.67342468 245.00757446 269.09062195 245.64797974 C269.88094013 246.8601505 270.67471202 248.07007881 271.47245789 249.27737427 C273.54018874 252.45592642 275.4346184 255.47888295 276.49247742 259.13552856 C276.03471375 261.28152466 276.03471375 261.28152466 275.49247742 263.13552856 C262.65366034 263.25129149 249.81496706 263.34017776 236.97573471 263.39458942 C231.01416869 263.42070213 225.05295927 263.4561316 219.09159851 263.51272583 C213.34036496 263.56698459 207.58947477 263.59693648 201.83800507 263.60991478 C199.64187971 263.6191656 197.4457735 263.63723007 195.24979401 263.66417885 C192.17760356 263.70038676 189.10683849 263.70547726 186.0344696 263.70315552 C185.12312759 263.7211319 184.21178558 263.73910828 183.27282715 263.75762939 C177.09377876 263.70697872 177.09377876 263.70697872 173.98716736 260.7545929 C173.49391968 259.89030167 173.000672 259.02601044 172.49247742 258.13552856 C172.0116571 257.319552 171.53083679 256.50357544 171.03544617 255.66287231 C170.58814148 254.80822388 170.14083679 253.95357544 169.67997742 253.07302856 C166.89674995 247.82689392 163.89731667 242.74089184 160.81278992 237.66677856 C159.49247742 235.13552856 159.49247742 235.13552856 159.49247742 232.13552856 C158.83247742 232.13552856 158.17247742 232.13552856 157.49247742 232.13552856 C156.97298523 231.14552856 156.45349304 230.15552856 155.91825867 229.13552856 C151.07674232 219.9540775 151.07674232 219.9540775 145.69950867 211.08084106 C143.65296386 207.78252613 141.86762316 204.34104214 140.02763367 200.92459106 C138.57561064 198.28656449 137.05657639 195.70832843 135.49247742 193.13552856 C131.15673061 185.98894327 127.1494005 178.65253712 123.49247742 171.13552856 C120.7675224 172.41311824 118.47873457 173.80569469 116.14482117 175.70193481 C115.53960632 176.18726685 114.93439148 176.67259888 114.31083679 177.17263794 C113.05266304 178.193026 111.79485283 179.21386247 110.53739929 180.23513794 C109.93347351 180.71918091 109.32954773 181.20322388 108.70732117 181.70193481 C108.16196716 182.14480835 107.61661316 182.58768188 107.05473328 183.04397583 C105.49247742 184.13552856 105.49247742 184.13552856 102.49247742 185.13552856 C102.49247742 185.79552856 102.49247742 186.45552856 102.49247742 187.13552856 C100.81134048 188.46925017 99.07052264 189.72823973 97.30497742 190.94802856 C93.32455888 193.76642991 89.84874737 196.58183097 86.49247742 200.13552856 C85.63692261 200.72308426 84.7813678 201.31063995 83.89988708 201.91600037 C81.28103892 203.91508729 81.28103892 203.91508729 80.85997009 206.8117218 C80.85632446 207.83018692 80.85267883 208.84865204 80.84892273 209.89797974 C80.83250732 211.05565353 80.81609192 212.21332733 80.79917908 213.40608215 C80.80624878 214.65097916 80.81331848 215.89587616 80.82060242 217.17849731 C80.80112768 219.13265455 80.78164971 221.08681176 80.76197433 223.04096699 C80.74082636 225.77351428 80.74267605 228.50588046 80.74388123 231.23849487 C80.74065214 236.03341061 80.69799273 240.82816686 80.66014099 245.62290955 C80.64229562 248.1758353 80.63208598 250.72882731 80.62998962 253.28181458 C80.62618286 254.43003189 80.6223761 255.57824921 80.61845398 256.76126099 C80.61799072 257.77733932 80.61752747 258.79341766 80.61705017 259.84028625 C80.49247742 262.13552856 80.49247742 262.13552856 79.49247742 263.13552856 C76.85047681 263.23596128 74.23459152 263.27169706 71.59208679 263.2649231 C70.35069695 263.26755157 70.35069695 263.26755157 69.08422852 263.27023315 C66.3348738 263.2746525 63.58558285 263.2717134 60.83622742 263.26834106 C58.93433113 263.26901408 57.03243493 263.26998409 55.13053894 263.27124023 C51.13903486 263.27271732 47.14755312 263.27056231 43.15605164 263.26589966 C38.02757235 263.26020237 32.89914539 263.26348131 27.77066803 263.26947212 C23.84173688 263.27307745 19.91281823 263.27193928 15.98388672 263.26934433 C14.0923563 263.26867498 12.20082477 263.26950375 10.30929565 263.27182388 C7.67045565 263.27434995 5.03170161 263.27051048 2.39286804 263.2649231 C1.20839836 263.26795944 1.20839836 263.26795944 0 263.27105713 C-5.39326007 263.24979108 -5.39326007 263.24979108 -6.50752258 262.13552856 C-6.60492465 260.73949745 -6.63307683 259.33856518 -6.63336372 257.93914032 C-6.63597147 257.02859972 -6.63857922 256.11805913 -6.64126599 255.1799264 C-6.63903527 254.16798385 -6.63680454 253.15604131 -6.63450623 252.11343384 C-6.63606622 251.04747781 -6.63762621 249.98152179 -6.63923347 248.88326406 C-6.6432485 245.28179163 -6.64005188 241.68036074 -6.63691711 238.07888794 C-6.63827093 235.50896683 -6.64005075 232.93904591 -6.64222717 230.36912537 C-6.64668548 224.09571063 -6.64570813 217.82230783 -6.64281453 211.54889262 C-6.64056074 206.45262276 -6.64024787 201.35635627 -6.64133835 196.26008606 C-6.64149158 195.53614099 -6.64164481 194.81219592 -6.64180269 194.06631312 C-6.6421224 192.59586338 -6.64244661 191.12541365 -6.64277528 189.65496391 C-6.64563025 175.85030483 -6.64234279 162.04565238 -6.63697492 148.24099439 C-6.63250686 136.38308189 -6.63328279 124.52517917 -6.63789368 112.66726685 C-6.64323914 98.91369226 -6.64535556 85.1601235 -6.64228141 71.40654802 C-6.64196285 69.94135571 -6.64164848 68.47616339 -6.64133835 67.01097107 C-6.64110694 65.92947545 -6.64110694 65.92947545 -6.64087085 64.82613143 C-6.64000561 59.73302928 -6.64146872 54.63993081 -6.6438179 49.54682922 C-6.64690721 42.69825245 -6.64472358 35.84969455 -6.63892365 29.00111961 C-6.63759527 26.4794995 -6.63799146 23.95787783 -6.64018631 21.43625832 C-6.6428948 18.01002514 -6.6395204 14.58385255 -6.63450623 11.15762329 C-6.63673695 10.14568075 -6.63896767 9.1337382 -6.64126599 8.09113073 C-6.63735437 6.72531984 -6.63735437 6.72531984 -6.63336372 5.33191681 C-6.63320137 4.53998255 -6.63303902 3.7480483 -6.63287175 2.93211603 C-6.35425898 -1.06114725 -3.29703262 0.01300046 0 0 Z " fill="#6E0101" transform="translate(82.50752258300781,175.86447143554688)"/>
<path d="M0 0 C0.78964645 0.00202423 1.57929291 0.00404846 2.39286804 0.00613403 C3.63425789 0.00350555 3.63425789 0.00350555 4.90072632 0.00082397 C7.65008104 -0.00359537 10.39937199 -0.00065627 13.14872742 0.00271606 C15.0506237 0.00204305 16.9525199 0.00107304 18.85441589 -0.00018311 C22.84591997 -0.00166019 26.83740171 0.00049482 30.8289032 0.00515747 C35.95738248 0.01085476 41.08580944 0.00757582 46.2142868 0.00158501 C50.14321795 -0.00202032 54.0721366 -0.00088215 58.00106812 0.0017128 C59.89259853 0.00238215 61.78413007 0.00155338 63.67565918 -0.00076675 C66.31449918 -0.00329282 68.95325323 0.00054665 71.59208679 0.00613403 C72.77655647 0.00309769 72.77655647 0.00309769 73.98495483 0 C79.3782149 0.02126605 79.3782149 0.02126605 80.49247742 1.13552856 C80.59984887 2.48846532 80.63926379 3.84688275 80.6506958 5.20402527 C80.66048462 6.08047195 80.67027344 6.95691864 80.68035889 7.85992432 C80.68611435 8.82880585 80.69186981 9.79768738 80.69779968 10.79592896 C80.70769928 11.81044632 80.71759888 12.82496368 80.72779846 13.870224 C80.7595187 17.24118677 80.78421232 20.61216367 80.80888367 23.98318481 C80.82944412 26.31346514 80.85044033 28.64374166 80.87185669 30.97401428 C80.92717127 37.12085903 80.97653901 43.26773796 81.02470398 49.41464233 C81.07485065 55.68166156 81.1305723 61.94863088 81.18583679 68.21560669 C81.2935331 80.52220473 81.39495242 92.82884601 81.49247742 105.13552856 C82.48247742 103.65052856 82.48247742 103.65052856 83.49247742 102.13552856 C84.15247742 102.13552856 84.81247742 102.13552856 85.49247742 102.13552856 C85.71935242 101.60056763 85.94622742 101.06560669 86.17997742 100.51443481 C87.9099685 97.37882598 90.17019996 94.77682303 92.49247742 92.07302856 C94.9691373 89.16826034 97.37035974 86.31870508 99.49247742 83.13552856 C100.15247742 83.13552856 100.81247742 83.13552856 101.49247742 83.13552856 C101.55435242 82.57865356 101.61622742 82.02177856 101.67997742 81.44802856 C102.82546326 78.18779963 105.04121345 76.55532124 107.49247742 74.13552856 C109.05834138 72.30175099 110.60032726 70.44730857 112.11747742 68.57302856 C112.87286804 67.6436145 113.62825867 66.71420044 114.40653992 65.75662231 C115.69540553 64.13709267 116.94885215 62.48773599 118.14091492 60.79568481 C118.80993835 59.97390747 118.80993835 59.97390747 119.49247742 59.13552856 C120.15247742 59.13552856 120.81247742 59.13552856 121.49247742 59.13552856 C121.82247742 57.81552856 122.15247742 56.49552856 122.49247742 55.13552856 C123.15247742 55.13552856 123.81247742 55.13552856 124.49247742 55.13552856 C124.71806335 54.60056763 124.94364929 54.06560669 125.17607117 53.51443481 C126.91896074 50.36482131 129.20468538 47.77568402 131.55497742 45.07302856 C132.54527547 43.91869341 133.53484673 42.76373441 134.52372742 41.60818481 C135.02001648 41.02955688 135.51630554 40.45092896 136.02763367 39.85476685 C138.2343888 37.26477191 140.39703777 34.6413933 142.55497742 32.01052856 C143.26782898 31.14170044 143.98068054 30.27287231 144.71513367 29.37771606 C146.60125133 27.06138305 146.60125133 27.06138305 148.49247742 24.13552856 C149.15247742 24.13552856 149.81247742 24.13552856 150.49247742 24.13552856 C150.69872742 23.55802856 150.90497742 22.98052856 151.11747742 22.38552856 C152.9899863 19.32142313 155.46206261 17.98012888 158.49247742 16.13552856 C156.79205639 20.27966843 153.85098337 23.37936091 150.92997742 26.69802856 C149.83392639 27.95887963 148.73888253 29.22060689 147.64482117 30.48318481 C147.10583191 31.10467407 146.56684265 31.72616333 146.01152039 32.3664856 C143.96112309 34.75433176 141.97314521 37.18967641 139.99247742 39.63552856 C136.54244688 43.8870181 133.00587506 48.05274526 129.42997742 52.19802856 C125.36037858 56.91805182 121.40191867 61.70050792 117.53935242 66.59255981 C114.69486634 70.12645378 111.73962486 73.56411445 108.78935242 77.009552 C104.69971497 81.81771603 100.81945027 86.77751722 97.02055359 91.81814575 C95.88935195 93.29276666 94.69621136 94.71949587 93.49247742 96.13552856 C92.83247742 96.13552856 92.17247742 96.13552856 91.49247742 96.13552856 C91.15409851 96.93216919 91.15409851 96.93216919 90.80888367 97.74490356 C89.05168369 100.93602044 86.77193002 103.6162607 84.42997742 106.38552856 C83.97042664 106.93982544 83.51087585 107.49412231 83.03739929 108.06521606 C81.88124685 109.44377081 80.68976204 110.79254264 79.49247742 112.13552856 C79.16247742 112.13552856 78.83247742 112.13552856 78.49247742 112.13552856 C77.99747742 58.18052856 77.99747742 58.18052856 77.49247742 3.13552856 C50.76247742 3.13552856 24.03247742 3.13552856 -3.50752258 3.13552856 C-3.5272247 34.18712424 -3.47657392 65.23576694 -3.30559349 96.28675485 C-3.27658052 101.61135618 -3.24913774 106.93596566 -3.22151184 112.26057434 C-3.16938187 122.26737095 -3.1160287 132.27416059 -3.06213999 142.28094786 C-2.98286669 157.01035978 -2.90529453 171.73978068 -2.82798004 186.469203 C-2.82227194 187.5566159 -2.81656384 188.64402881 -2.81068277 189.76439363 C-2.79930296 191.93254701 -2.78792718 194.10070042 -2.77655554 196.26885384 C-2.74353025 202.55695004 -2.71006524 208.8450437 -2.67620087 215.13313544 C-2.65526282 219.02873239 -2.63457027 222.92433062 -2.61392403 226.81992912 C-2.60436253 228.61293218 -2.59469142 230.40593466 -2.58489799 232.19893646 C-2.57146779 234.65971736 -2.55843491 237.12050009 -2.54548645 239.58128357 C-2.53965003 240.62265542 -2.53965003 240.62265542 -2.5336957 241.68506509 C-2.5020227 247.83545554 -2.50752258 253.98474916 -2.50752258 260.13552856 C24.22247742 260.13552856 50.95247742 260.13552856 78.49247742 260.13552856 C78.29464621 241.2274565 78.29464621 241.2274565 78.04203796 222.32009888 C78.02743618 219.95129519 78.01469479 217.58247899 78.00419617 215.21365356 C77.97861633 213.98179321 77.9530365 212.74993286 77.92668152 211.48074341 C77.92607727 210.30366821 77.92547302 209.12659302 77.92485046 207.91384888 C77.91374741 206.89236755 77.90264435 205.87088623 77.89120483 204.81845093 C78.70496278 201.18740328 80.46807424 200.14669161 83.49247742 198.13552856 C84.15247742 198.46552856 84.81247742 198.79552856 85.49247742 199.13552856 C84.5188752 200.19124054 84.5188752 200.19124054 83.52560425 201.26828003 C81.19954495 204.5486411 80.98532712 206.04803766 80.96244812 210.01150513 C80.94595718 211.16910339 80.92946625 212.32670166 80.91247559 213.51937866 C80.914384 214.75911438 80.91629242 215.9988501 80.91825867 217.27615356 C80.8970118 219.19303986 80.8970118 219.19303986 80.87533569 221.14865112 C80.84052702 224.53503958 80.82213585 227.92066408 80.81254578 231.30715942 C80.795117 236.0933257 80.74810537 240.87928691 80.70248413 245.66525269 C80.6799028 248.21260443 80.66414098 250.76002696 80.65563965 253.3074646 C80.64860519 254.45245422 80.64157074 255.59744385 80.63432312 256.77713013 C80.63084366 257.79019226 80.6273642 258.80325439 80.6237793 259.84701538 C80.49247742 262.13552856 80.49247742 262.13552856 79.49247742 263.13552856 C76.85047681 263.23596128 74.23459152 263.27169706 71.59208679 263.2649231 C70.35069695 263.26755157 70.35069695 263.26755157 69.08422852 263.27023315 C66.3348738 263.2746525 63.58558285 263.2717134 60.83622742 263.26834106 C58.93433113 263.26901408 57.03243493 263.26998409 55.13053894 263.27124023 C51.13903486 263.27271732 47.14755312 263.27056231 43.15605164 263.26589966 C38.02757235 263.26020237 32.89914539 263.26348131 27.77066803 263.26947212 C23.84173688 263.27307745 19.91281823 263.27193928 15.98388672 263.26934433 C14.0923563 263.26867498 12.20082477 263.26950375 10.30929565 263.27182388 C7.67045565 263.27434995 5.03170161 263.27051048 2.39286804 263.2649231 C1.20839836 263.26795944 1.20839836 263.26795944 0 263.27105713 C-5.39326007 263.24979108 -5.39326007 263.24979108 -6.50752258 262.13552856 C-6.60492465 260.73949745 -6.63307683 259.33856518 -6.63336372 257.93914032 C-6.63597147 257.02859972 -6.63857922 256.11805913 -6.64126599 255.1799264 C-6.63903527 254.16798385 -6.63680454 253.15604131 -6.63450623 252.11343384 C-6.63606622 251.04747781 -6.63762621 249.98152179 -6.63923347 248.88326406 C-6.6432485 245.28179163 -6.64005188 241.68036074 -6.63691711 238.07888794 C-6.63827093 235.50896683 -6.64005075 232.93904591 -6.64222717 230.36912537 C-6.64668548 224.09571063 -6.64570813 217.82230783 -6.64281453 211.54889262 C-6.64056074 206.45262276 -6.64024787 201.35635627 -6.64133835 196.26008606 C-6.64149158 195.53614099 -6.64164481 194.81219592 -6.64180269 194.06631312 C-6.6421224 192.59586338 -6.64244661 191.12541365 -6.64277528 189.65496391 C-6.64563025 175.85030483 -6.64234279 162.04565238 -6.63697492 148.24099439 C-6.63250686 136.38308189 -6.63328279 124.52517917 -6.63789368 112.66726685 C-6.64323914 98.91369226 -6.64535556 85.1601235 -6.64228141 71.40654802 C-6.64196285 69.94135571 -6.64164848 68.47616339 -6.64133835 67.01097107 C-6.64110694 65.92947545 -6.64110694 65.92947545 -6.64087085 64.82613143 C-6.64000561 59.73302928 -6.64146872 54.63993081 -6.6438179 49.54682922 C-6.64690721 42.69825245 -6.64472358 35.84969455 -6.63892365 29.00111961 C-6.63759527 26.4794995 -6.63799146 23.95787783 -6.64018631 21.43625832 C-6.6428948 18.01002514 -6.6395204 14.58385255 -6.63450623 11.15762329 C-6.63673695 10.14568075 -6.63896767 9.1337382 -6.64126599 8.09113073 C-6.63735437 6.72531984 -6.63735437 6.72531984 -6.63336372 5.33191681 C-6.63320137 4.53998255 -6.63303902 3.7480483 -6.63287175 2.93211603 C-6.35425898 -1.06114725 -3.29703262 0.01300046 0 0 Z " fill="#412119" transform="translate(82.50752258300781,175.86447143554688)"/>
<path d="M0 0 C0.495 1.98 0.495 1.98 1 4 C0.34 4 -0.32 4 -1 4 C-1.32677734 4.804375 -1.32677734 4.804375 -1.66015625 5.625 C-3.47060209 8.83418679 -5.91753415 11.34532933 -8.4375 14 C-12.26124464 18.03284864 -12.26124464 18.03284864 -15.72265625 22.375 C-16.14417969 22.91125 -16.56570313 23.4475 -17 24 C-17.66 24 -18.32 24 -19 24 C-19.27199219 24.57878906 -19.54398437 25.15757812 -19.82421875 25.75390625 C-22.88985979 31.61019727 -27.29941834 36.41406667 -32 41 C-36.47527704 45.66083475 -36.47527704 45.66083475 -40 51 C-40.66 51 -41.32 51 -42 51 C-42.66 52.32 -43.32 53.64 -44 55 C-44.66 55 -45.32 55 -46 55 C-46.061875 55.556875 -46.12375 56.11375 -46.1875 56.6875 C-47.3364741 59.95765706 -49.51198688 61.63046369 -52 64 C-52.8353125 65.1446875 -52.8353125 65.1446875 -53.6875 66.3125 C-54.120625 66.869375 -54.55375 67.42625 -55 68 C-55.66 68 -56.32 68 -57 68 C-57.25523437 68.57234375 -57.51046875 69.1446875 -57.7734375 69.734375 C-59.13087159 72.24173733 -60.71974104 74.1330456 -62.625 76.25 C-63.25664062 76.95640625 -63.88828125 77.6628125 -64.5390625 78.390625 C-65.26222656 79.18726563 -65.26222656 79.18726563 -66 80 C-64.2893265 84.63376608 -61.88105148 88.54131131 -59.2421875 92.6953125 C-58 95 -58 95 -58 98 C-57.34 98 -56.68 98 -56 98 C-54.83007812 99.59790039 -54.83007812 99.59790039 -53.53125 101.84765625 C-53.0472876 102.67354248 -52.5633252 103.49942871 -52.06469727 104.3503418 C-51.54834717 105.245354 -51.03199707 106.14036621 -50.5 107.0625 C-46.68642188 113.56041242 -42.80298531 119.95885538 -38.5625 126.1875 C-35.46547262 130.7467265 -32.54774932 135.32830712 -29.9609375 140.19921875 C-29.09935227 141.81381546 -28.14849686 143.38002233 -27.1875 144.9375 C-26 147 -26 147 -26 149 C-25.34 149 -24.68 149 -24 149 C-21.95830515 151.90548882 -21 153.40142046 -21 157 C-20.34 157 -19.68 157 -19 157 C-18.58041016 157.78310547 -18.58041016 157.78310547 -18.15234375 158.58203125 C-15.26708469 163.87940399 -12.1516548 168.97595481 -8.88671875 174.046875 C-6.88744771 177.17616881 -4.93969261 180.33346119 -3 183.5 C0.60389026 189.37454944 4.28571585 195.19483735 8 201 C9.70020911 203.67515419 11.39939814 206.35095058 13.09765625 209.02734375 C14.51100971 211.23588991 15.93520403 213.43510597 17.37109375 215.62890625 C17.77602051 216.25047607 18.18094727 216.8720459 18.59814453 217.51245117 C19.38846271 218.72462194 20.1822346 219.93455025 20.97998047 221.1418457 C23.04771132 224.32039785 24.94214099 227.34335439 26 231 C25.54223633 233.14599609 25.54223633 233.14599609 25 235 C12.16118292 235.11576292 -0.67751036 235.2046492 -13.51674271 235.25906086 C-19.47830873 235.28517357 -25.43951814 235.32060304 -31.40087891 235.37719727 C-37.15211245 235.43145602 -42.90300264 235.46140792 -48.65447235 235.47438622 C-50.85059771 235.48363703 -53.04670392 235.50170151 -55.24268341 235.52865028 C-58.31487386 235.56485819 -61.38563892 235.56994869 -64.45800781 235.56762695 C-65.82502083 235.59459152 -65.82502083 235.59459152 -67.21965027 235.62210083 C-73.39808794 235.57145516 -73.39808794 235.57145516 -76.50140381 232.62516785 C-76.99594055 231.75886246 -77.49047729 230.89255707 -78 230 C-78.75216797 228.72769531 -78.75216797 228.72769531 -79.51953125 227.4296875 C-79.94621094 226.58664062 -80.37289062 225.74359375 -80.8125 224.875 C-81.25207031 224.02679688 -81.69164062 223.17859375 -82.14453125 222.3046875 C-83 220 -83 220 -82 217 C-78.04 223.93 -78.04 223.93 -74 231 C-41.99 231 -9.98 231 23 231 C18.05 223.08 13.1 215.16 8 207 C1.5 196.5 1.5 196.5 -1.6953125 191.33203125 C-7.76174426 181.53283111 -13.88588965 171.76948825 -20 162 C-22.54223988 157.93785829 -25.08402756 153.87543466 -27.625 149.8125 C-28.24656982 148.81863281 -28.86813965 147.82476562 -29.50854492 146.80078125 C-33.58692718 140.27451429 -37.64320928 133.73493625 -41.6875 127.1875 C-45.81970029 120.49870921 -49.98548307 113.83264427 -54.1875 107.1875 C-54.67387939 106.41422363 -55.16025879 105.64094727 -55.66137695 104.84423828 C-58.0819679 101.00108716 -60.53191207 97.18319517 -63.04296875 93.3984375 C-63.52032471 92.66729736 -63.99768066 91.93615723 -64.48950195 91.18286133 C-65.39031213 89.80426461 -66.30362119 88.43372699 -67.23120117 87.07299805 C-70.12651265 82.60292966 -70.12651265 82.60292966 -69.56640625 79.93359375 C-69.04949219 79.29550781 -68.53257812 78.65742188 -68 78 C-67.26910156 77.071875 -66.53820312 76.14375 -65.78515625 75.1875 C-64.8824053 74.12091772 -63.97455316 73.05863878 -63.0625 72 C-62.57668457 71.43039551 -62.09086914 70.86079102 -61.59033203 70.27392578 C-57.81964128 65.88146574 -53.92279174 61.61616489 -49.98217773 57.37646484 C-47.06590695 54.2200672 -44.31148149 50.97819952 -41.625 47.625 C-37.58084808 42.59517665 -33.24335533 37.9121465 -28.8215332 33.21826172 C-24.56446351 28.67395139 -20.59021821 23.97956866 -16.70703125 19.109375 C-15 17 -15 17 -13 15 C-12.896875 14.175 -12.79375 13.35 -12.6875 12.5 C-12.460625 11.675 -12.23375 10.85 -12 10 C-11.29875 9.731875 -10.5975 9.46375 -9.875 9.1875 C-5.42380121 7.34896137 -2.97570445 3.68747237 0 0 Z " fill="#432C23" transform="translate(333,204)"/>
<path d="M0 0 C28.05 0 56.1 0 85 0 C86.53309721 1.53309721 86.14020883 2.93050533 86.15821838 5.0684967 C86.1680072 5.94494339 86.17779602 6.82139008 86.18788147 7.72439575 C86.19363693 8.69327728 86.1993924 9.66215881 86.20532227 10.66040039 C86.21522186 11.67491776 86.22512146 12.68943512 86.23532104 13.73469543 C86.26704128 17.10565821 86.2917349 20.4766351 86.31640625 23.84765625 C86.3369667 26.17793658 86.35796292 28.5082131 86.37937927 30.83848572 C86.43469386 36.98533047 86.4840616 43.13220939 86.53222656 49.27911377 C86.58237323 55.54613299 86.63809488 61.81310231 86.69335938 68.08007812 C86.80105569 80.38667617 86.902475 92.69331745 87 105 C87.99 103.515 87.99 103.515 89 102 C89.66 102 90.32 102 91 102 C91.226875 101.46503906 91.45375 100.93007813 91.6875 100.37890625 C93.41749108 97.24329742 95.67772255 94.64129446 98 91.9375 C100.47665988 89.03273177 102.87788233 86.18317651 105 83 C105.66 83 106.32 83 107 83 C107.061875 82.443125 107.12375 81.88625 107.1875 81.3125 C108.33298584 78.05227107 110.54873603 76.41979268 113 74 C114.56586397 72.16622243 116.10784984 70.31178001 117.625 68.4375 C118.38039063 67.50808594 119.13578125 66.57867187 119.9140625 65.62109375 C121.20292812 64.00156411 122.45637473 62.35220743 123.6484375 60.66015625 C124.31746094 59.83837891 124.31746094 59.83837891 125 59 C125.66 59 126.32 59 127 59 C127.33 57.68 127.66 56.36 128 55 C128.66 55 129.32 55 130 55 C130.22558594 54.46503906 130.45117188 53.93007812 130.68359375 53.37890625 C132.42648332 50.22929275 134.71220796 47.64015545 137.0625 44.9375 C138.05279805 43.78316485 139.04236932 42.62820584 140.03125 41.47265625 C140.52753906 40.89402832 141.02382812 40.31540039 141.53515625 39.71923828 C143.74191138 37.12924334 145.90456035 34.50586473 148.0625 31.875 C148.77535156 31.00617188 149.48820313 30.13734375 150.22265625 29.2421875 C152.10877391 26.92585448 152.10877391 26.92585448 154 24 C154.66 24 155.32 24 156 24 C156.20625 23.4225 156.4125 22.845 156.625 22.25 C158.49750888 19.18589456 160.96958519 17.84460032 164 16 C162.29957897 20.14413986 159.35850595 23.24383235 156.4375 26.5625 C155.34144897 27.82335107 154.24640511 29.08507833 153.15234375 30.34765625 C152.61335449 30.96914551 152.07436523 31.59063477 151.51904297 32.23095703 C149.46864567 34.61880319 147.48066779 37.05414785 145.5 39.5 C142.04996947 43.75148953 138.51339764 47.9172167 134.9375 52.0625 C130.86790116 56.78252325 126.90944126 61.56497936 123.046875 66.45703125 C120.20238892 69.99092522 117.24714744 73.42858589 114.296875 76.87402344 C110.20723755 81.68218746 106.32697285 86.64198865 102.52807617 91.68261719 C101.39687453 93.1572381 100.20373394 94.58396731 99 96 C98.34 96 97.68 96 97 96 C96.66162109 96.79664063 96.66162109 96.79664063 96.31640625 97.609375 C94.55920627 100.80049188 92.27945261 103.48073214 89.9375 106.25 C89.47794922 106.80429687 89.01839844 107.35859375 88.54492188 107.9296875 C87.38876943 109.30824225 86.19728462 110.65701407 85 112 C84.67 112 84.34 112 84 112 C83.505 58.045 83.505 58.045 83 3 C56.27 3 29.54 3 2 3 C1.67 73.29 1.34 143.58 1 216 C0.67 216 0.34 216 0 216 C0 144.72 0 73.44 0 0 Z " fill="#695148" transform="translate(77,176)"/>
<path d="M0 0 C0.495 1.98 0.495 1.98 1 4 C0.34 4 -0.32 4 -1 4 C-1.32677734 4.804375 -1.32677734 4.804375 -1.66015625 5.625 C-3.47060209 8.83418679 -5.91753415 11.34532933 -8.4375 14 C-12.26124464 18.03284864 -12.26124464 18.03284864 -15.72265625 22.375 C-16.14417969 22.91125 -16.56570313 23.4475 -17 24 C-17.66 24 -18.32 24 -19 24 C-19.27199219 24.57878906 -19.54398437 25.15757812 -19.82421875 25.75390625 C-22.88985979 31.61019727 -27.29941834 36.41406667 -32 41 C-36.47527704 45.66083475 -36.47527704 45.66083475 -40 51 C-40.66 51 -41.32 51 -42 51 C-42.66 52.32 -43.32 53.64 -44 55 C-44.66 55 -45.32 55 -46 55 C-46.061875 55.556875 -46.12375 56.11375 -46.1875 56.6875 C-47.3364741 59.95765706 -49.51198688 61.63046369 -52 64 C-52.8353125 65.1446875 -52.8353125 65.1446875 -53.6875 66.3125 C-54.120625 66.869375 -54.55375 67.42625 -55 68 C-55.66 68 -56.32 68 -57 68 C-57.38285156 68.85851562 -57.38285156 68.85851562 -57.7734375 69.734375 C-59.13087159 72.24173733 -60.71974104 74.1330456 -62.625 76.25 C-63.25664062 76.95640625 -63.88828125 77.6628125 -64.5390625 78.390625 C-65.02117187 78.92171875 -65.50328125 79.4528125 -66 80 C-64.2893265 84.63376608 -61.88105148 88.54131131 -59.2421875 92.6953125 C-58 95 -58 95 -58 98 C-57.34 98 -56.68 98 -56 98 C-54.83007812 99.59790039 -54.83007812 99.59790039 -53.53125 101.84765625 C-53.0472876 102.67354248 -52.5633252 103.49942871 -52.06469727 104.3503418 C-51.54834717 105.245354 -51.03199707 106.14036621 -50.5 107.0625 C-46.68642188 113.56041242 -42.80298531 119.95885538 -38.5625 126.1875 C-35.46547262 130.7467265 -32.54774932 135.32830712 -29.9609375 140.19921875 C-29.09935227 141.81381546 -28.14849686 143.38002233 -27.1875 144.9375 C-26 147 -26 147 -26 149 C-25.34 149 -24.68 149 -24 149 C-21.95830515 151.90548882 -21 153.40142046 -21 157 C-20.34 157 -19.68 157 -19 157 C-18.67386719 157.60328125 -18.34773438 158.2065625 -18.01171875 158.828125 C-17.57472656 159.62734375 -17.13773437 160.4265625 -16.6875 161.25 C-16.25824219 162.03890625 -15.82898438 162.8278125 -15.38671875 163.640625 C-14.06811988 166.03680611 -14.06811988 166.03680611 -12.26953125 168.046875 C-11 170 -11 170 -11.4206543 172.12207031 C-11.70743042 173.05164551 -11.70743042 173.05164551 -12 174 C-16.88892774 167.19933483 -21.38568839 160.24655617 -25.6875 153.0625 C-30.03983628 145.85374411 -34.42414006 138.67167419 -38.9375 131.5625 C-44.17567893 123.31075583 -49.37863833 115.03777409 -54.53662109 106.7355957 C-57.3921733 102.14341825 -60.26411864 97.56992912 -63.24609375 93.05859375 C-63.72675293 92.32213623 -64.20741211 91.58567871 -64.70263672 90.8269043 C-65.58297074 89.48237979 -66.47580965 88.14592618 -67.38330078 86.81958008 C-68.53515625 85.046875 -68.53515625 85.046875 -70 82 C-69.5546875 79.953125 -69.5546875 79.953125 -68 78 C-67.26910156 77.071875 -66.53820312 76.14375 -65.78515625 75.1875 C-64.8824053 74.12091772 -63.97455316 73.05863878 -63.0625 72 C-62.57668457 71.43039551 -62.09086914 70.86079102 -61.59033203 70.27392578 C-57.81964128 65.88146574 -53.92279174 61.61616489 -49.98217773 57.37646484 C-47.06590695 54.2200672 -44.31148149 50.97819952 -41.625 47.625 C-37.58084808 42.59517665 -33.24335533 37.9121465 -28.8215332 33.21826172 C-24.56446351 28.67395139 -20.59021821 23.97956866 -16.70703125 19.109375 C-15 17 -15 17 -13 15 C-12.896875 14.175 -12.79375 13.35 -12.6875 12.5 C-12.460625 11.675 -12.23375 10.85 -12 10 C-11.29875 9.731875 -10.5975 9.46375 -9.875 9.1875 C-5.42380121 7.34896137 -2.97570445 3.68747237 0 0 Z " fill="#936D66" transform="translate(333,204)"/>
<path d="M0 0 C1.0152475 -0.00102219 2.030495 -0.00204437 3.07650757 -0.00309753 C6.42138592 0.00176678 9.76351069 0.05615684 13.10791016 0.11108398 C15.43102528 0.1241442 17.75415971 0.13410637 20.07730103 0.14109802 C26.18354788 0.1677896 32.28862401 0.23652408 38.39440918 0.31402588 C44.62817549 0.38570983 50.86213149 0.4176207 57.09619141 0.45288086 C69.32196541 0.52789183 81.54687158 0.64732122 93.77197266 0.79467773 C94.93603516 5.50561523 94.93603516 5.50561523 93.45947266 8.10717773 C92.90259766 8.66405273 92.34572266 9.22092773 91.77197266 9.79467773 C91.11197266 9.79467773 90.45197266 9.79467773 89.77197266 9.79467773 C89.4490625 10.59518555 89.4490625 10.59518555 89.11962891 11.41186523 C87.27620422 14.67125381 84.77183893 17.22279544 82.20947266 19.91967773 C78.58563359 23.5587118 78.58563359 23.5587118 75.77197266 27.79467773 C74.28697266 27.29967773 74.28697266 27.29967773 72.77197266 26.79467773 C73.81998047 25.56491211 73.81998047 25.56491211 74.88916016 24.31030273 C75.8086406 23.22193812 76.72789983 22.13338659 77.64697266 21.04467773 C78.10716797 20.50584961 78.56736328 19.96702148 79.04150391 19.41186523 C81.34595213 16.6732456 83.37377728 14.10534724 84.77197266 10.79467773 C85.76197266 10.79467773 86.75197266 10.79467773 87.77197266 10.79467773 C88.06072266 10.17592773 88.34947266 9.55717773 88.64697266 8.91967773 C89.77197266 6.79467773 89.77197266 6.79467773 91.77197266 4.79467773 C78.62872193 4.53944906 65.48606356 4.34417711 52.34083652 4.22474384 C46.23634178 4.16741089 40.13354612 4.08969329 34.0300293 3.96484375 C28.13599484 3.84503818 22.24359089 3.77949372 16.34843254 3.75102806 C14.10320302 3.73075228 11.85805967 3.69115456 9.6135273 3.63164711 C-2.68201927 2.68137571 -2.68201927 2.68137571 -13.51834106 7.2046814 C-15.76272592 9.96477785 -17.45204797 12.72453104 -19.22802734 15.79467773 C-21.461327 17.78693504 -23.67432227 19.21898737 -26.22802734 20.79467773 C-24.7680538 17.49483958 -22.91024643 15.13593616 -20.47802734 12.48217773 C-17.60217133 9.39519646 -17.60217133 9.39519646 -15.05385399 6.04608059 C-10.78917647 0.0778734 -7.04832143 -0.18654292 0 0 Z " fill="#392D28" transform="translate(262.22802734375,175.205322265625)"/>
<path d="M0 0 C0 3.43027108 -0.34106335 3.75291829 -2.52734375 6.1875 C-3.0675415 6.79795166 -3.60773926 7.40840332 -4.16430664 8.03735352 C-4.74946045 8.68502686 -5.33461426 9.3327002 -5.9375 10 C-7.14442869 11.36221942 -8.3501535 12.72550639 -9.5546875 14.08984375 C-10.14733398 14.75870605 -10.73998047 15.42756836 -11.35058594 16.11669922 C-13.4822001 18.55057601 -15.52963421 21.04579715 -17.5625 23.5625 C-20.98928584 27.79558839 -24.50513518 31.93949208 -28.0625 36.0625 C-32.13214801 40.78247877 -36.09056091 45.5649821 -39.953125 50.45703125 C-42.79761108 53.99092522 -45.75285256 57.42858589 -48.703125 60.87402344 C-52.79276245 65.68218746 -56.67302715 70.64198865 -60.47192383 75.68261719 C-61.60312547 77.1572381 -62.79626606 78.58396731 -64 80 C-64.66 80 -65.32 80 -66 80 C-66.39832031 80.87398437 -66.39832031 80.87398437 -66.8046875 81.765625 C-68.03302996 84.06174228 -69.40314939 85.80356018 -71.125 87.75 C-71.66382813 88.36359375 -72.20265625 88.9771875 -72.7578125 89.609375 C-73.37269531 90.29773438 -73.37269531 90.29773438 -74 91 C-74.33 89.68 -74.66 88.36 -75 87 C-73.515 86.505 -73.515 86.505 -72 86 C-71.31254585 84.67726457 -70.6512457 83.34093298 -70 82 C-68.36358788 79.9406638 -66.71221677 77.93100952 -65 75.9375 C-62.52334012 73.03273177 -60.12211767 70.18317651 -58 67 C-57.34 67 -56.68 67 -56 67 C-55.938125 66.443125 -55.87625 65.88625 -55.8125 65.3125 C-54.66701416 62.05227107 -52.45126397 60.41979268 -50 58 C-48.43413603 56.16622243 -46.89215016 54.31178001 -45.375 52.4375 C-44.61960938 51.50808594 -43.86421875 50.57867187 -43.0859375 49.62109375 C-41.79707188 48.00156411 -40.54362527 46.35220743 -39.3515625 44.66015625 C-38.68253906 43.83837891 -38.68253906 43.83837891 -38 43 C-37.34 43 -36.68 43 -36 43 C-35.67 41.68 -35.34 40.36 -35 39 C-34.34 39 -33.68 39 -33 39 C-32.77441406 38.46503906 -32.54882812 37.93007812 -32.31640625 37.37890625 C-30.57351668 34.22929275 -28.28779204 31.64015545 -25.9375 28.9375 C-24.94720195 27.78316485 -23.95763068 26.62820584 -22.96875 25.47265625 C-22.47246094 24.89402832 -21.97617188 24.31540039 -21.46484375 23.71923828 C-19.25808862 21.12924334 -17.09543965 18.50586473 -14.9375 15.875 C-14.22464844 15.00617188 -13.51179688 14.13734375 -12.77734375 13.2421875 C-10.89122609 10.92585448 -10.89122609 10.92585448 -9 8 C-8.34 8 -7.68 8 -7 8 C-6.773125 7.4225 -6.54625 6.845 -6.3125 6.25 C-4.66961977 3.4336339 -2.60466773 1.91922886 0 0 Z " fill="#906860" transform="translate(240,192)"/>
<path d="M0 0 C0.35191406 0.62342285 0.70382813 1.2468457 1.06640625 1.88916016 C9.25337677 16.39902006 9.25337677 16.39902006 17.5 30.875 C18.10714844 31.93976563 18.71429688 33.00453125 19.33984375 34.1015625 C20.42608669 35.99801488 21.52208474 37.88892125 22.62890625 39.7734375 C23.10199219 40.59070313 23.57507813 41.40796875 24.0625 42.25 C24.46597656 42.93578125 24.86945313 43.6215625 25.28515625 44.328125 C25.52105469 44.87984375 25.75695312 45.4315625 26 46 C25.505 46.99 25.505 46.99 25 48 C20.99555987 43.64222692 18.29584939 39.08421624 15.53515625 33.859375 C14.09898198 31.18436338 12.58056915 28.5916382 11 26 C6.66425319 18.85341471 2.65692308 11.51700855 -1 4 C-3.72495502 5.27758968 -6.01374284 6.67016612 -8.34765625 8.56640625 C-8.95287109 9.05173828 -9.55808594 9.53707031 -10.18164062 10.03710938 C-11.43981438 11.05749743 -12.69762459 12.0783339 -13.95507812 13.09960938 C-14.55900391 13.58365234 -15.16292969 14.06769531 -15.78515625 14.56640625 C-16.33051025 15.00927979 -16.87586426 15.45215332 -17.43774414 15.90844727 C-19 17 -19 17 -22 18 C-22 18.66 -22 19.32 -22 20 C-23.76494494 21.3956731 -25.58808217 22.71836522 -27.4375 24 C-31.32727075 26.45900384 -31.32727075 26.45900384 -34 30 C-35.32 29.67 -36.64 29.34 -38 29 C-35.93821926 27.24914666 -33.87560123 25.49929619 -31.8125 23.75 C-31.23435547 23.25886719 -30.65621094 22.76773437 -30.06054688 22.26171875 C-29.49013672 21.77832031 -28.91972656 21.29492188 -28.33203125 20.796875 C-27.7692749 20.31968018 -27.20651855 19.84248535 -26.62670898 19.35083008 C-25.16246165 18.13490924 -23.65756255 16.96834602 -22.1484375 15.80859375 C-19.66918019 13.72150987 -19.05791249 12.01098169 -18 9 C-17.34 8.67 -16.68 8.34 -16 8 C-15.34 7.01 -14.68 6.02 -14 5 C-12.3125 4 -12.3125 4 -10 3 C-8.824375 2.46375 -7.64875 1.9275 -6.4375 1.375 C-3 0 -3 0 0 0 Z " fill="#882120" transform="translate(207,343)"/>
<path d="M0 0 C0.495 1.98 0.495 1.98 1 4 C0.34 4 -0.32 4 -1 4 C-1.32677734 4.804375 -1.32677734 4.804375 -1.66015625 5.625 C-3.47060209 8.83418679 -5.91753415 11.34532933 -8.4375 14 C-12.26124464 18.03284864 -12.26124464 18.03284864 -15.72265625 22.375 C-16.14417969 22.91125 -16.56570313 23.4475 -17 24 C-17.66 24 -18.32 24 -19 24 C-19.27199219 24.57878906 -19.54398437 25.15757812 -19.82421875 25.75390625 C-22.88985979 31.61019727 -27.29941834 36.41406667 -32 41 C-36.47527704 45.66083475 -36.47527704 45.66083475 -40 51 C-40.66 51 -41.32 51 -42 51 C-42.66 52.32 -43.32 53.64 -44 55 C-44.66 55 -45.32 55 -46 55 C-46.061875 55.556875 -46.12375 56.11375 -46.1875 56.6875 C-47.3364741 59.95765706 -49.51198688 61.63046369 -52 64 C-52.556875 64.763125 -53.11375 65.52625 -53.6875 66.3125 C-54.120625 66.869375 -54.55375 67.42625 -55 68 C-55.66 68 -56.32 68 -57 68 C-57.38285156 68.85851562 -57.38285156 68.85851562 -57.7734375 69.734375 C-59.13087159 72.24173733 -60.71974104 74.1330456 -62.625 76.25 C-63.25664062 76.95640625 -63.88828125 77.6628125 -64.5390625 78.390625 C-65.26222656 79.18726563 -65.26222656 79.18726563 -66 80 C-66.33 79.01 -66.66 78.02 -67 77 C-65.55078125 74.7578125 -65.55078125 74.7578125 -63.3125 72.125 C-62.06919922 70.65933594 -62.06919922 70.65933594 -60.80078125 69.1640625 C-57.4265656 65.31570413 -53.93995893 61.57222885 -50.44238281 57.83618164 C-47.34346484 54.51078916 -44.40462847 51.11385686 -41.5625 47.5625 C-37.54238634 42.55012598 -33.22344022 37.8909817 -28.82128906 33.21801758 C-24.56432053 28.67377282 -20.59014564 23.97947765 -16.70703125 19.109375 C-15 17 -15 17 -13 15 C-12.896875 14.175 -12.79375 13.35 -12.6875 12.5 C-12.460625 11.675 -12.23375 10.85 -12 10 C-11.29875 9.731875 -10.5975 9.46375 -9.875 9.1875 C-5.42380121 7.34896137 -2.97570445 3.68747237 0 0 Z " fill="#8C6861" transform="translate(333,204)"/>
<path d="M0 0 C34.32 0 68.64 0 104 0 C103 4 103 4 101 7 C100.34 7 99.68 7 99 7 C98.67708984 7.80050781 98.67708984 7.80050781 98.34765625 8.6171875 C96.50423156 11.87657608 93.99986627 14.4281177 91.4375 17.125 C87.81366093 20.76403407 87.81366093 20.76403407 85 25 C83.515 24.505 83.515 24.505 82 24 C83.04800781 22.77023438 83.04800781 22.77023438 84.1171875 21.515625 C85.03666795 20.42726039 85.95592718 19.33870885 86.875 18.25 C87.33519531 17.71117187 87.79539062 17.17234375 88.26953125 16.6171875 C90.57397948 13.87856787 92.60180463 11.3106695 94 8 C94.99 8 95.98 8 97 8 C97.28875 7.38125 97.5775 6.7625 97.875 6.125 C99 4 99 4 101 2 C67.67 1.67 34.34 1.34 0 1 C0 0.67 0 0.34 0 0 Z " fill="#522D2A" transform="translate(253,178)"/>
<path d="M0 0 C0.6875 1.765625 0.6875 1.765625 1 4 C-0.1875 5.859375 -0.1875 5.859375 -2 7.75 C-2.64453125 8.44222656 -3.2890625 9.13445312 -3.953125 9.84765625 C-4.96632813 10.91306641 -4.96632813 10.91306641 -6 12 C-11.5543566 18.08770045 -11.5543566 18.08770045 -16 25 C-15.01 25.33 -14.02 25.66 -13 26 C-13 27.32 -13 28.64 -13 30 C-14.0725 29.731875 -15.145 29.46375 -16.25 29.1875 C-17.4875 29.125625 -18.725 29.06375 -20 29 C-22.30726069 31.1825439 -23.60710366 33.10195123 -24.875 36 C-26.61634692 39.09572785 -29.21499654 40.82043208 -32 43 C-31.34 43.33 -30.68 43.66 -30 44 C-30.5775 44.0825 -31.155 44.165 -31.75 44.25 C-34.6159304 45.20531013 -35.9990764 46.78469173 -38 49 C-38.495 47.515 -38.495 47.515 -39 46 C-38.34 46 -37.68 46 -37 46 C-36.77183594 45.46246094 -36.54367188 44.92492187 -36.30859375 44.37109375 C-34.59850761 41.27251976 -32.37034628 38.72213993 -30.0625 36.0625 C-29.06764679 34.90109438 -28.07285693 33.73963449 -27.078125 32.578125 C-26.56830078 31.98580078 -26.05847656 31.39347656 -25.53320312 30.78320312 C-23.11426378 27.969838 -20.71149196 25.14288039 -18.3125 22.3125 C-17.85609131 21.77431641 -17.39968262 21.23613281 -16.92944336 20.68164062 C-13.4536538 16.56905085 -10.07191968 12.3875242 -6.7265625 8.16796875 C-4.52796965 5.4072922 -2.27318501 2.6994072 0 0 Z " fill="#940D0D" transform="translate(213,226)"/>
<path d="M0 0 C0.66 0.33 1.32 0.66 2 1 C1.35125916 1.70348068 0.70251831 2.40696136 0.03411865 3.13175964 C-2.29306728 6.41324403 -2.51133804 7.92604002 -2.54589844 11.8918457 C-2.57547638 13.63308464 -2.57547638 13.63308464 -2.60565186 15.40950012 C-2.60749481 17.27380928 -2.60749481 17.27380928 -2.609375 19.17578125 C-2.62591125 20.45607712 -2.64244751 21.73637299 -2.65948486 23.0554657 C-2.70306868 26.4469595 -2.72313701 29.8381951 -2.73822021 33.22991943 C-2.75782414 36.69575042 -2.79957536 40.16131077 -2.83984375 43.62695312 C-2.91713191 50.41814131 -2.95759067 57.20814597 -3 64 C-11.91 64 -20.82 64 -30 64 C-30 63.67 -30 63.34 -30 63 C-21.75 63 -13.5 63 -5 63 C-5.02618408 61.23366211 -5.05236816 59.46732422 -5.0793457 57.64746094 C-5.1600061 51.80820212 -5.21743893 45.96896255 -5.25906086 40.12931442 C-5.28514349 36.58898524 -5.32051425 33.04925931 -5.37719727 29.50927734 C-5.44197206 25.43841805 -5.4661911 21.36819128 -5.48828125 17.296875 C-5.51408768 16.02696716 -5.5398941 14.75705933 -5.56648254 13.44866943 C-5.5668602 12.26774719 -5.56723785 11.08682495 -5.56762695 9.87011719 C-5.57873001 8.83087097 -5.58983307 7.79162476 -5.60127258 6.72088623 C-4.79199011 3.05871104 -3.0523315 2.02262908 0 0 Z " fill="#845D50" transform="translate(166,374)"/>
<path d="M0 0 C2.23030143 1.84358509 3.04151297 3.11135427 4.06959534 5.86907959 C5.59937046 9.74221043 6.97837549 12.10447727 10 15 C16.73921299 17.34005829 24.4437355 16.53263743 31.46484375 16.390625 C33.58476912 16.39068136 35.70470039 16.39602663 37.82460022 16.40643311 C43.39059765 16.41959576 48.95360638 16.36111283 54.51904297 16.28753662 C60.20339218 16.2251192 65.88763395 16.23068116 71.57226562 16.23046875 C82.71578463 16.22005971 93.85732884 16.1339377 105 16 C105 16.33 105 16.66 105 17 C92.43937859 17.18531212 79.87908198 17.32748293 67.31737232 17.41449738 C61.48444675 17.45625938 55.6524559 17.51290751 49.82006836 17.60351562 C44.19196574 17.6904035 38.56476238 17.7382665 32.93604088 17.75901794 C30.78810145 17.77380672 28.64021161 17.80268693 26.4926548 17.84584045 C23.48466086 17.90388299 20.48038713 17.91191503 17.47192383 17.90820312 C16.13835594 17.95134644 16.13835594 17.95134644 14.77784729 17.99536133 C12.27563232 17.96192743 10.35512809 17.85210682 8 17 C5.72316854 14.59075643 4.375194 11.99389337 3 9 C2.401875 7.906875 1.80375 6.81375 1.1875 5.6875 C0 3 0 3 0 0 Z " fill="#927562" transform="translate(250,421)"/>
<path d="M0 0 C18.48 0 36.96 0 56 0 C56 0.33 56 0.66 56 1 C38.51 1.33 21.02 1.66 3 2 C2.36594906 8.3405094 1.87078908 14.25830823 1.97265625 20.5625 C1.98527708 22.1158834 1.99763982 23.66926891 2.00976562 25.22265625 C2.03475569 27.63011542 2.06301249 30.03746013 2.09594727 32.44482422 C2.12600061 34.79655719 2.14385193 37.14813745 2.16015625 39.5 C2.17361588 40.22388916 2.1870755 40.94777832 2.20094299 41.69360352 C2.2098919 43.46364749 2.11368648 45.23358806 2 47 C1.34 47.66 0.68 48.32 0 49 C0 32.83 0 16.66 0 0 Z " fill="#1D0604" transform="translate(78,179)"/>
<path d="M0 0 C0.99 0 1.98 0 3 0 C3.35191406 0.62342285 3.70382813 1.2468457 4.06640625 1.88916016 C12.25337677 16.39902006 12.25337677 16.39902006 20.5 30.875 C21.10714844 31.93976563 21.71429688 33.00453125 22.33984375 34.1015625 C23.42608669 35.99801488 24.52208474 37.88892125 25.62890625 39.7734375 C26.10199219 40.59070313 26.57507813 41.40796875 27.0625 42.25 C27.46597656 42.93578125 27.86945313 43.6215625 28.28515625 44.328125 C28.52105469 44.87984375 28.75695312 45.4315625 29 46 C28.67 46.66 28.34 47.32 28 48 C23.99555987 43.64222692 21.29584939 39.08421624 18.53515625 33.859375 C17.09898198 31.18436338 15.58056915 28.5916382 14 26 C10.14896445 19.65236135 6.45761299 13.19553617 3.375 6.4375 C1.86678038 3.76383795 0.86570843 2.98817532 -2 2 C-1.34 1.34 -0.68 0.68 0 0 Z " fill="#7C5B55" transform="translate(204,343)"/>
<path d="M0 0 C0 4.47354702 -2.94567665 6.65566965 -5.8125 9.8125 C-10.99073821 15.62256189 -15.90083158 21.55624171 -20.5715332 27.7824707 C-21.67068393 29.22271555 -22.82990533 30.61677333 -24 32 C-24.66 32 -25.32 32 -26 32 C-26.39832031 32.87398438 -26.39832031 32.87398438 -26.8046875 33.765625 C-28.03302996 36.06174228 -29.40314939 37.80356018 -31.125 39.75 C-31.93324219 40.67039062 -31.93324219 40.67039062 -32.7578125 41.609375 C-33.37269531 42.29773438 -33.37269531 42.29773438 -34 43 C-34.33 41.68 -34.66 40.36 -35 39 C-33.515 38.505 -33.515 38.505 -32 38 C-31.31254585 36.67726457 -30.6512457 35.34093298 -30 34 C-28.36358788 31.9406638 -26.71221677 29.93100952 -25 27.9375 C-22.52334012 25.03273177 -20.12211767 22.18317651 -18 19 C-17.34 19 -16.68 19 -16 19 C-15.9071875 18.1646875 -15.9071875 18.1646875 -15.8125 17.3125 C-14.65823021 14.02727058 -12.50611114 12.392197 -10 10 C-9.175 8.989375 -8.35 7.97875 -7.5 6.9375 C-5.17993421 4.2114227 -2.86417237 2.1276709 0 0 Z " fill="#A7766F" transform="translate(200,240)"/>
<path d="M0 0 C0.33 0 0.66 0 1 0 C1 34.98 1 69.96 1 106 C2.485 105.505 2.485 105.505 4 105 C2.25 108.875 2.25 108.875 0 110 C0 73.7 0 37.4 0 0 Z " fill="#CA9181" transform="translate(161,178)"/>
<path d="M0 0 C3.40040734 1.13346911 4.53729252 2.46266502 7 5 C9.43075661 6.98880086 10.98644053 7.99548018 14 9 C13.34 9.66 12.68 10.32 12 11 C12.28875 11.69867188 12.5775 12.39734375 12.875 13.1171875 C13.431875 14.48230469 13.431875 14.48230469 14 15.875 C14.37125 16.77992188 14.7425 17.68484375 15.125 18.6171875 C16 21 16 21 16 23 C16.99 23.33 17.98 23.66 19 24 C20.64820195 26.60242414 21 27.86248779 21 31 C17.21362613 29.73787538 16.96514571 28.64528879 15.1171875 25.1953125 C14.58996094 24.21949219 14.06273437 23.24367188 13.51953125 22.23828125 C12.97683594 21.21089844 12.43414062 20.18351562 11.875 19.125 C11.32457031 18.10535156 10.77414063 17.08570313 10.20703125 16.03515625 C6.16703869 8.50111607 6.16703869 8.50111607 5 5 C3.02 5.33 1.04 5.66 -1 6 C-1.33 5.34 -1.66 4.68 -2 4 C-1.0625 1.875 -1.0625 1.875 0 0 Z " fill="#950F0E" transform="translate(202,338)"/>
<path d="M0 0 C0.66 0.99 1.32 1.98 2 3 C1.154375 3.89460938 0.30875 4.78921875 -0.5625 5.7109375 C-7.02660601 12.58780828 -13.27162995 19.4890858 -19 27 C-19.99 26.34 -20.98 25.68 -22 25 C-21.34 24.67 -20.68 24.34 -20 24 C-19.54625 22.845 -19.0925 21.69 -18.625 20.5 C-17 17 -17 17 -14.875 16.1875 C-14.25625 16.125625 -13.6375 16.06375 -13 16 C-12.67 15.34 -12.34 14.68 -12 14 C-11.34 14 -10.68 14 -10 14 C-10 13.34 -10 12.68 -10 12 C-10.66 12 -11.32 12 -12 12 C-11.67 11.34 -11.34 10.68 -11 10 C-10.01 10 -9.02 10 -8 10 C-5.2650899 7.06973918 -3.27424305 4.82272915 -2 1 C-1.34 0.67 -0.68 0.34 0 0 Z " fill="#7E100F" transform="translate(284,256)"/>
<path d="M0 0 C2.50037734 2.17424117 3.43628586 3.73045798 4 7 C4.66 7 5.32 7 6 7 C8.04169485 9.90548882 9 11.40142046 9 15 C9.66 15 10.32 15 11 15 C11.32613281 15.60328125 11.65226562 16.2065625 11.98828125 16.828125 C12.42527344 17.62734375 12.86226563 18.4265625 13.3125 19.25 C13.74175781 20.03890625 14.17101562 20.8278125 14.61328125 21.640625 C15.93188012 24.03680611 15.93188012 24.03680611 17.73046875 26.046875 C19 28 19 28 18.6875 30.25 C18.460625 30.8275 18.23375 31.405 18 32 C13.38501752 25.73118421 9.17239433 19.23244038 5.0625 12.625 C4.56580811 11.84012207 4.06911621 11.05524414 3.55737305 10.24658203 C3.0962915 9.49747559 2.63520996 8.74836914 2.16015625 7.9765625 C1.74386963 7.30705566 1.32758301 6.63754883 0.89868164 5.94775391 C0 4 0 4 0 0 Z " fill="#7F6058" transform="translate(303,346)"/>
<path d="M0 0 C0.66 0 1.32 0 2 0 C1.38722388 2.96175123 0.74627478 4.38058783 -1 7 C-1.66 7 -2.32 7 -3 7 C-3.21527344 7.53367188 -3.43054688 8.06734375 -3.65234375 8.6171875 C-5.49576844 11.87657608 -8.00013373 14.4281177 -10.5625 17.125 C-14.18633907 20.76403407 -14.18633907 20.76403407 -17 25 C-17.99 24.67 -18.98 24.34 -20 24 C-19.30132812 23.18015625 -18.60265625 22.3603125 -17.8828125 21.515625 C-16.96333205 20.42726039 -16.04407282 19.33870885 -15.125 18.25 C-14.66480469 17.71117187 -14.20460938 17.17234375 -13.73046875 16.6171875 C-11.42602052 13.87856787 -9.39819537 11.3106695 -8 8 C-7.01 8 -6.02 8 -5 8 C-4.731875 7.4225 -4.46375 6.845 -4.1875 6.25 C-2.97070811 3.94449957 -1.69666121 1.97943808 0 0 Z " fill="#4A3C36" transform="translate(355,178)"/>
<path d="M0 0 C22.44 0 44.88 0 68 0 C67.01 0.99 66.02 1.98 65 3 C64.01 3 63.02 3 62 3 C62 2.34 62 1.68 62 1 C41.87 1.33 21.74 1.66 1 2 C0.67 1.34 0.34 0.68 0 0 Z " fill="#150000" transform="translate(287,179)"/>
<path d="M0 0 C0.66 0.33 1.32 0.66 2 1 C2 1.99 2 2.98 2 4 C0 5.5 0 5.5 -2 7 C-2 7.99 -2 8.98 -2 10 C-2.7425 10.12375 -3.485 10.2475 -4.25 10.375 C-6.80141485 10.95486701 -8.7267573 11.73708739 -11 13 C-11 10.69 -11 8.38 -11 6 C-10.01 5.67 -9.02 5.34 -8 5 C-7.67 4.34 -7.34 3.68 -7 3 C-4.03 3.495 -4.03 3.495 -1 4 C-0.67 2.68 -0.34 1.36 0 0 Z " fill="#8A1816" transform="translate(172,365)"/>
<path d="M0 0 C2.80768351 1.40384175 2.87877447 3.10984944 4 6 C4.98707013 7.69310296 6.01448562 9.36312214 7.07421875 11.01171875 C7.65880859 11.93404297 8.24339844 12.85636719 8.84570312 13.80664062 C10.08228759 15.74085281 11.32191585 17.67312213 12.56445312 19.60351562 C13.14517578 20.52197266 13.72589844 21.44042969 14.32421875 22.38671875 C14.86135498 23.22420654 15.39849121 24.06169434 15.9519043 24.92456055 C16.29777588 25.60945557 16.64364746 26.29435059 17 27 C16.67 27.66 16.34 28.32 16 29 C12.90861299 26.93907533 11.59754442 25.3015918 10 22 C9.01 21.34 8.02 20.68 7 20 C7.33 19.01 7.66 18.02 8 17 C6.78874655 15.49411734 5.56842965 13.99310163 4.2734375 12.55859375 C2.63696517 10.5556721 1.89438138 8.40794986 1 6 C0.34 5.67 -0.32 5.34 -1 5 C-0.67 3.35 -0.34 1.7 0 0 Z " fill="#930E0F" transform="translate(262,283)"/>
<path d="M0 0 C0.66 0 1.32 0 2 0 C4.00200321 3.50084338 5.99557069 7.0063385 7.98144531 10.51635742 C8.65817834 11.70972388 9.33720163 12.9017946 10.01855469 14.0925293 C10.99755465 15.80435212 11.96765299 17.52125618 12.9375 19.23828125 C13.52402344 20.26993408 14.11054688 21.30158691 14.71484375 22.36450195 C16 25 16 25 16 28 C15.34 28 14.68 28 14 28 C13.15885829 26.56705502 12.32734313 25.12845595 11.5 23.6875 C10.80390625 22.48673828 10.80390625 22.48673828 10.09375 21.26171875 C9 19 9 19 9 16 C8.34 16 7.68 16 7 16 C5.82558465 13.89983377 4.66035988 11.79541245 3.5 9.6875 C3.16613281 9.09259766 2.83226562 8.49769531 2.48828125 7.88476562 C0.93174886 5.04171156 0 3.29339012 0 0 Z " fill="#866258" transform="translate(233,392)"/>
<path d="M0 0 C-1.04874998 2.62187494 -1.64931313 3.79371361 -4.125 5.25 C-4.74375 5.4975 -5.3625 5.745 -6 6 C-6 6.66 -6 7.32 -6 8 C-7.76494494 9.3956731 -9.58808217 10.71836522 -11.4375 12 C-15.32727075 14.45900384 -15.32727075 14.45900384 -18 18 C-19.32 17.67 -20.64 17.34 -22 17 C-20.71416016 15.91332031 -20.71416016 15.91332031 -19.40234375 14.8046875 C-18.57536987 14.10533081 -18.57536987 14.10533081 -17.73168945 13.3918457 C-16.534103 12.37938079 -15.33602209 11.36750046 -14.13745117 10.35620117 C-11.00015727 7.70612065 -7.89108101 5.03082153 -4.8125 2.3125 C-2 0 -2 0 0 0 Z " fill="#946E67" transform="translate(191,355)"/>
<path d="M0 0 C0.33 0 0.66 0 1 0 C1 14.52 1 29.04 1 44 C2.485 43.505 2.485 43.505 4 43 C2.25 46.875 2.25 46.875 0 48 C0 32.16 0 16.32 0 0 Z " fill="#F0B0A2" transform="translate(161,240)"/>
<path d="M0 0 C0.33 1.32 0.66 2.64 1 4 C0.34 4 -0.32 4 -1 4 C-1.24621094 4.56203125 -1.49242187 5.1240625 -1.74609375 5.703125 C-3.22097424 8.40477525 -5.00431649 10.46395952 -7.0625 12.75 C-8.13177734 13.94882813 -8.13177734 13.94882813 -9.22265625 15.171875 C-9.80917969 15.77515625 -10.39570313 16.3784375 -11 17 C-11.33 17 -11.66 17 -12 17 C-12 14.69 -12 12.38 -12 10 C-11.319375 9.835 -10.63875 9.67 -9.9375 9.5 C-5.60367647 7.28698373 -3.02197064 3.74480511 0 0 Z " fill="#5B4A42" transform="translate(333,204)"/>
<path d="M0 0 C0.33 0.99 0.66 1.98 1 3 C-1.3125 6.1875 -1.3125 6.1875 -4 9 C-4.66 9 -5.32 9 -6 9 C-6.26554687 9.57234375 -6.53109375 10.1446875 -6.8046875 10.734375 C-8.05676891 13.1076012 -9.4936352 15.12213286 -11.125 17.25 C-11.66382813 17.95640625 -12.20265625 18.6628125 -12.7578125 19.390625 C-13.16773438 19.92171875 -13.57765625 20.4528125 -14 21 C-14.66 20.67 -15.32 20.34 -16 20 C-13.39948907 15.16511506 -9.92411418 11.27648897 -6.3125 7.1875 C-5.70599609 6.49462891 -5.09949219 5.80175781 -4.47460938 5.08789062 C-2.98649864 3.38886656 -1.49490929 1.69304131 0 0 Z " fill="#846657" transform="translate(320,219)"/>
<path d="M0 0 C2.74468803 2.51596403 4.71008886 5.33127167 6.75 8.4375 C7.70132812 9.85869141 7.70132812 9.85869141 8.671875 11.30859375 C10 14 10 14 9.703125 16.34765625 C9.47109375 16.89292969 9.2390625 17.43820312 9 18 C0.91881919 6.79704797 0.91881919 6.79704797 -1 2 C-0.67 1.34 -0.34 0.68 0 0 Z " fill="#614841" transform="translate(322,376)"/>
<path d="M0 0 C2.05078125 0.03255208 4.1015625 0.06510417 6.15234375 0.09765625 C6.15234375 1.74765625 6.15234375 3.39765625 6.15234375 5.09765625 C4.54359375 4.69546875 4.54359375 4.69546875 2.90234375 4.28515625 C1.66484375 4.22328125 0.42734375 4.16140625 -0.84765625 4.09765625 C-3.55417322 6.66172496 -4.67161541 8.56953374 -5.84765625 12.09765625 C-6.50765625 11.76765625 -7.16765625 11.43765625 -7.84765625 11.09765625 C-7.03759099 9.45062319 -6.22453415 7.80506119 -5.41015625 6.16015625 C-4.95769531 5.24363281 -4.50523437 4.32710937 -4.0390625 3.3828125 C-2.33985188 0.12367082 -2.33985188 0.12367082 0 0 Z " fill="#9D0204" transform="translate(193.84765625,250.90234375)"/>
<path d="M0 0 C0.99 0 1.98 0 3 0 C4.36402043 2.2863012 5.71634274 4.57821749 7.0625 6.875 C7.45244141 7.52597656 7.84238281 8.17695313 8.24414062 8.84765625 C9.22444533 10.53065725 10.11898432 12.26296199 11 14 C10.67 14.66 10.34 15.32 10 16 C6.0799284 13.38661893 5.23794961 10.53369416 3.37890625 6.3125 C1.84426644 3.73882644 0.76396068 3.03281758 -2 2 C-1.34 1.34 -0.68 0.68 0 0 Z " fill="#A77972" transform="translate(204,343)"/>
<path d="M0 0 C0.75390625 1.6875 0.75390625 1.6875 1 4 C-2.88806523 9.70859459 -7.98426861 14.6065105 -14 18 C-12.52266997 14.64173948 -10.60015399 12.25714878 -8.125 9.5625 C-5.30239908 6.45250699 -2.57280648 3.32320837 0 0 Z " fill="#6A5046" transform="translate(250,178)"/>
<path d="M0 0 C0.33 0.66 0.66 1.32 1 2 C3.02463255 2.65213292 3.02463255 2.65213292 5 3 C5 3.99 5 4.98 5 6 C4.01 6 3.02 6 2 6 C2.66 7.65 3.32 9.3 4 11 C3.01 11.495 3.01 11.495 2 12 C1.34 10.68 0.68 9.36 0 8 C-0.99 8 -1.98 8 -3 8 C-1.125 1.125 -1.125 1.125 0 0 Z " fill="#64120F" transform="translate(251,414)"/>
<path d="M0 0 C0.99 0 1.98 0 3 0 C2.71248893 3.21422633 1.90082842 4.09344717 -0.50390625 6.359375 C-1.51324219 7.14828125 -2.52257812 7.9371875 -3.5625 8.75 C-5.08037109 9.94882812 -5.08037109 9.94882812 -6.62890625 11.171875 C-7.41136719 11.77515625 -8.19382813 12.3784375 -9 13 C-9.33 11.68 -9.66 10.36 -10 9 C-9.34 9 -8.68 9 -8 9 C-7.67 8.01 -7.34 7.02 -7 6 C-6.195625 5.690625 -5.39125 5.38125 -4.5625 5.0625 C-1.85842507 4.23391841 -1.85842507 4.23391841 -0.6875 1.875 C-0.460625 1.25625 -0.23375 0.6375 0 0 Z " fill="#961110" transform="translate(185,354)"/>
<path d="M0 0 C0.66 0.33 1.32 0.66 2 1 C0.6875 3 0.6875 3 -1 5 C-1.99 5 -2.98 5 -4 5 C-4 14.57 -4 24.14 -4 34 C-4.33 34 -4.66 34 -5 34 C-5.12383963 29.80088403 -5.21444607 25.60274184 -5.2746582 21.40234375 C-5.29976347 19.97442099 -5.33385587 18.54662625 -5.37719727 17.11914062 C-5.43803678 15.06348082 -5.46624551 13.00952247 -5.48828125 10.953125 C-5.51446533 9.71723633 -5.54064941 8.48134766 -5.56762695 7.20800781 C-5 4 -5 4 -2.46948242 1.56542969 C-1.65455322 1.04883789 -0.83962402 0.53224609 0 0 Z " fill="#CB9386" transform="translate(166,374)"/>
<path d="M0 0 C0.27585937 0.57878906 0.55171875 1.15757812 0.8359375 1.75390625 C1.96815088 3.93854615 3.24647634 5.90196068 4.625 7.9375 C6.63400737 11.08946171 7.59804948 13.17248332 7 17 C4.54596356 14.09151236 2.26884431 11.07984714 0.125 7.9375 C-0.55175781 6.96103516 -0.55175781 6.96103516 -1.2421875 5.96484375 C-2 4 -2 4 -1.1328125 1.75390625 C-0.75898438 1.17511719 -0.38515625 0.59632813 0 0 Z " fill="#9D7169" transform="translate(265,282)"/>
<path d="M0 0 C0.33 1.32 0.66 2.64 1 4 C0.34 4 -0.32 4 -1 4 C-1.26554688 4.58265625 -1.53109375 5.1653125 -1.8046875 5.765625 C-3.03302996 8.06174228 -4.40314939 9.80356018 -6.125 11.75 C-6.93324219 12.67039062 -6.93324219 12.67039062 -7.7578125 13.609375 C-8.16773438 14.06828125 -8.57765625 14.5271875 -9 15 C-9.33 13.68 -9.66 12.36 -10 11 C-9.01 10.67 -8.02 10.34 -7 10 C-6.31379969 8.67661368 -5.65213539 7.34050052 -5 6 C-3.40283189 3.93277924 -1.70863672 1.97842146 0 0 Z " fill="#936E67" transform="translate(175,268)"/>
<path d="M0 0 C0.66 0.33 1.32 0.66 2 1 C2 3.33333333 2 5.66666667 2 8 C2.53625 7.835 3.0725 7.67 3.625 7.5 C6.45886009 6.90339788 9.1119806 6.9343632 12 7 C12 7.66 12 8.32 12 9 C8.37 9 4.74 9 1 9 C-0.32 6.36 -1.64 3.72 -3 1 C-2.01 0.67 -1.02 0.34 0 0 Z " fill="#3D0400" transform="translate(258,427)"/>
<path d="M0 0 C4.06963335 1.489539 5.32270828 3.7475392 7.3125 7.5 C8.11107422 8.96953125 8.11107422 8.96953125 8.92578125 10.46875 C9.28027344 11.3040625 9.63476562 12.139375 10 13 C9.67 13.66 9.34 14.32 9 15 C4.82093105 11.44005237 2.31440569 6.91336946 0 2 C0 1.34 0 0.68 0 0 Z " fill="#996E67" transform="translate(213,358)"/>
<path d="M0 0 C1.32 0.66 2.64 1.32 4 2 C3.04663979 3.31611677 2.08714226 4.62778961 1.125 5.9375 C0.59132813 6.66839844 0.05765625 7.39929688 -0.4921875 8.15234375 C-2 10 -2 10 -4 11 C-4.66 10.34 -5.32 9.68 -6 9 C-5.34 8.67 -4.68 8.34 -4 8 C-2.96514123 5.68191636 -1.9644586 3.34824702 -1 1 C-0.67 0.67 -0.34 0.34 0 0 Z " fill="#991010" transform="translate(268,272)"/>
<path d="M0 0 C0 3.86661175 -1.13700022 4.67134959 -3.6875 7.5 C-4.71423828 8.66015625 -4.71423828 8.66015625 -5.76171875 9.84375 C-8.02452163 12.02362293 -10.25120735 13.49803274 -13 15 C-11.79618552 12.50638429 -10.54571278 10.31856917 -9 8 C-8.34 8 -7.68 8 -7 8 C-6.773125 7.4225 -6.54625 6.845 -6.3125 6.25 C-4.66961977 3.4336339 -2.60466773 1.91922886 0 0 Z " fill="#835F58" transform="translate(240,192)"/>
<path d="M0 0 C2.44457392 2.25044599 4.09902934 4.55801293 5.75 7.4375 C6.19859375 8.19933594 6.6471875 8.96117187 7.109375 9.74609375 C8.13203743 12.33414736 7.95772637 13.43633001 7 16 C0.29612756 5.62642369 0.29612756 5.62642369 0 0 Z " fill="#79564A" transform="translate(250,421)"/>
<path d="M0 0 C2.50037734 2.17424117 3.43628586 3.73045798 4 7 C4.66 7 5.32 7 6 7 C7.6875 9.375 7.6875 9.375 9 12 C8.67 12.66 8.34 13.32 8 14 C7.34 14 6.68 14 6 14 C4.4921875 11.953125 4.4921875 11.953125 2.875 9.25 C2.33617187 8.36828125 1.79734375 7.4865625 1.2421875 6.578125 C0 4 0 4 0 0 Z " fill="#785B52" transform="translate(303,346)"/>
<path d="M0 0 C0.99 0 1.98 0 3 0 C0.98139091 6.05582728 -5.2094379 9.98255455 -10 14 C-8.44166808 10.5442173 -6.39989555 7.72724126 -4.0625 4.75 C-3.37285156 3.85796875 -2.68320313 2.9659375 -1.97265625 2.046875 C-0.99619141 1.03367188 -0.99619141 1.03367188 0 0 Z " fill="#4E0A06" transform="translate(252,179)"/>
<path d="M0 0 C0.99 0 1.98 0 3 0 C3.33 0.99 3.66 1.98 4 3 C4.66 3.66 5.32 4.32 6 5 C6.71408334 6.98356483 7.38617742 8.98315437 8 11 C7.01 11.495 7.01 11.495 6 12 C5.67 10.68 5.34 9.36 5 8 C4.01 8.33 3.02 8.66 2 9 C2 7.68 2 6.36 2 5 C1.38655243 3.31301918 0.72904086 1.64034193 0 0 Z " fill="#7E1919" transform="translate(230,384)"/>
<path d="M0 0 C3.40364888 1.39935885 4.90806188 2.87004732 6.8125 6 C7.25207031 6.70125 7.69164062 7.4025 8.14453125 8.125 C8.42683594 8.74375 8.70914062 9.3625 9 10 C8.67 10.66 8.34 11.32 8 12 C7.34 12 6.68 12 6 12 C4.4921875 9.8828125 4.4921875 9.8828125 2.875 7.125 C2.33617187 6.22007812 1.79734375 5.31515625 1.2421875 4.3828125 C0 2 0 2 0 0 Z " fill="#88645B" transform="translate(288,324)"/>
<path d="M0 0 C1 3 1 3 0.375 5.4375 C-1.26591347 8.49556601 -3.19399414 10.00625899 -6 12 C-6.66 11.34 -7.32 10.68 -8 10 C-5.36 6.7 -2.72 3.4 0 0 Z " fill="#820907" transform="translate(222,215)"/>
<path d="M0 0 C0.99 0.66 1.98 1.32 3 2 C-1.11378556 8.70459519 -1.11378556 8.70459519 -4.8125 9.9375 C-5.8953125 9.9684375 -5.8953125 9.9684375 -7 10 C-4.93992341 6.39486597 -2.6486859 3.19668988 0 0 Z " fill="#6E0B09" transform="translate(231,204)"/>
<path d="M0 0 C0.99 0.33 1.98 0.66 3 1 C3 1.66 3 2.32 3 3 C3.639375 3.2475 4.27875 3.495 4.9375 3.75 C7 5 7 5 7.75 7.125 C7.8325 7.74375 7.915 8.3625 8 9 C7.01 9.33 6.02 9.66 5 10 C3.35 6.7 1.7 3.4 0 0 Z " fill="#961211" transform="translate(222,370)"/>
<path d="M0 0 C0.33 0.99 0.66 1.98 1 3 C-0.29089743 4.4590143 -1.58274439 5.91718851 -2.875 7.375 C-3.59429687 8.18710937 -4.31359375 8.99921875 -5.0546875 9.8359375 C-6.33295938 11.25795079 -7.64794586 12.64794586 -9 14 C-9 9.82438593 -7.16647522 8.46042213 -4.5 5.3125 C-3.6646875 4.31863281 -2.829375 3.32476562 -1.96875 2.30078125 C-0.99421875 1.16189453 -0.99421875 1.16189453 0 0 Z " fill="#921313" transform="translate(173,274)"/>
<path d="M0 0 C1.2065625 0.0309375 1.2065625 0.0309375 2.4375 0.0625 C2.1075 1.0525 1.7775 2.0425 1.4375 3.0625 C0.7775 3.0625 0.1175 3.0625 -0.5625 3.0625 C-0.8925 4.7125 -1.2225 6.3625 -1.5625 8.0625 C-2.2225 8.0625 -2.8825 8.0625 -3.5625 8.0625 C-3.60491723 5.72955225 -3.60342937 3.39547433 -3.5625 1.0625 C-2.5625 0.0625 -2.5625 0.0625 0 0 Z " fill="#910907" transform="translate(164.5625,369.9375)"/>
<path d="M0 0 C0.66 0 1.32 0 2 0 C2.8638129 1.45264038 3.71580454 2.9123163 4.5625 4.375 C5.27599609 5.59316406 5.27599609 5.59316406 6.00390625 6.8359375 C6.33261719 7.55007813 6.66132813 8.26421875 7 9 C6.67 9.66 6.34 10.32 6 11 C3.34730103 8.52414762 1.31989897 6.40973899 0 3 C0 2.01 0 1.02 0 0 Z " fill="#956C66" transform="translate(233,392)"/>
<path d="M0 0 C0.33 1.32 0.66 2.64 1 4 C-1.64 6.31 -4.28 8.62 -7 11 C-7 6.68381834 -4.86729652 5.07210341 -2 2 C-1.34 2 -0.68 2 0 2 C0 1.34 0 0.68 0 0 Z " fill="#74544F" transform="translate(204,233)"/>
<path d="M0 0 C2.97 0.495 2.97 0.495 6 1 C4.63016497 4.16115776 4.0109362 4.9927092 1 7 C0.67 4.69 0.34 2.38 0 0 Z " fill="#590503" transform="translate(299,234)"/>
<path d="M0 0 C-1.04874998 2.62187494 -1.64931313 3.79371361 -4.125 5.25 C-4.74375 5.4975 -5.3625 5.745 -6 6 C-6 6.66 -6 7.32 -6 8 C-7.32 7.67 -8.64 7.34 -10 7 C-8.71372289 5.82739389 -7.42080217 4.6620717 -6.125 3.5 C-5.04605469 2.52546875 -5.04605469 2.52546875 -3.9453125 1.53125 C-2 0 -2 0 0 0 Z " fill="#A58077" transform="translate(191,355)"/>
<path d="M0 0 C0 3.58912412 -0.66436554 4.10857029 -3 6.6875 C-3.556875 7.31011719 -4.11375 7.93273437 -4.6875 8.57421875 C-5.120625 9.04472656 -5.55375 9.51523437 -6 10 C-6.33 9.01 -6.66 8.02 -7 7 C-4.89921489 3.92385037 -3.11378405 2.07585603 0 0 Z " fill="#B5847C" transform="translate(183,260)"/>
<path d="M0 0 C0.66 0.99 1.32 1.98 2 3 C0.73046875 4.46484375 -0.5390625 5.9296875 -1.80859375 7.39453125 C-3.20871231 9.10712971 -3.20871231 9.10712971 -4 12 C-4.66 11.67 -5.32 11.34 -6 11 C-5.18993474 9.35296694 -4.3768779 7.70740494 -3.5625 6.0625 C-3.11003906 5.14597656 -2.65757812 4.22945312 -2.19140625 3.28515625 C-1 1 -1 1 0 0 Z " fill="#950906" transform="translate(192,251)"/>
<path d="M0 0 C3 1 3 1 5 4 C2 6 2 6 -0.1875 5.625 C-0.785625 5.41875 -1.38375 5.2125 -2 5 C-1.34 3.35 -0.68 1.7 0 0 Z " fill="#950605" transform="translate(202,338)"/>
<path d="M0 0 C2.96865509 2.54456151 4.3619751 5.48994665 6 9 C4.125 8.8125 4.125 8.8125 2 8 C0.47835901 5.10888212 0 3.28176588 0 0 Z " fill="#851411" transform="translate(283,318)"/>
<path d="M0 0 C-1.29010992 2.87793751 -2.57361806 4.96183917 -5 7 C-5.99 7.33 -6.98 7.66 -8 8 C-7.67 7.01 -7.34 6.02 -7 5 C-6.34 5 -5.68 5 -5 5 C-4.87625 4.360625 -4.7525 3.72125 -4.625 3.0625 C-4.41875 2.381875 -4.2125 1.70125 -4 1 C-2 0 -2 0 0 0 Z " fill="#82615A" transform="translate(189,254)"/>
<path d="M0 0 C0.66 0 1.32 0 2 0 C1.38722388 2.96175123 0.74627478 4.38058783 -1 7 C-3.125 7.6875 -3.125 7.6875 -5 8 C-3.63055898 5.05043472 -2.12169591 2.47531189 0 0 Z " fill="#4F413C" transform="translate(355,178)"/>
<path d="M0 0 C2.91488977 2.6234008 4.88503898 5.71816394 7 9 C6.67 9.66 6.34 10.32 6 11 C1.9957657 7.50912907 0.37328935 5.35048061 0 0 Z " fill="#332720" transform="translate(342,408)"/>
<path d="M0 0 C0.66 0.33 1.32 0.66 2 1 C-1.32307692 5.8 -1.32307692 5.8 -4.75 6.8125 C-5.4925 6.874375 -6.235 6.93625 -7 7 C-4.66666667 4.66666667 -2.33333333 2.33333333 0 0 Z " fill="#AA807B" transform="translate(199,347)"/>
<path d="M0 0 C0.99 0.66 1.98 1.32 3 2 C3 2.99 3 3.98 3 5 C1.35 5.33 -0.3 5.66 -2 6 C-2.33 5.01 -2.66 4.02 -3 3 C-2.34 3 -1.68 3 -1 3 C-0.67 2.01 -0.34 1.02 0 0 Z " fill="#1E1310" transform="translate(333,200)"/>
<path d="M0 0 C1.65 0 3.3 0 5 0 C4.65120368 3.25543229 3.97866739 4.01873107 1.4375 6.25 C0.633125 6.8275 -0.17125 7.405 -1 8 C-0.67 6.68 -0.34 5.36 0 4 C0.66 4 1.32 4 2 4 C2 3.34 2 2.68 2 2 C1.34 2 0.68 2 0 2 C0 1.34 0 0.68 0 0 Z " fill="#880707" transform="translate(272,266)"/>
<path d="M0 0 C0.33 1.32 0.66 2.64 1 4 C-0.65 5.32 -2.3 6.64 -4 8 C-4.66 7.67 -5.32 7.34 -6 7 C-4.02 4.69 -2.04 2.38 0 0 Z " fill="#891110" transform="translate(213,226)"/>
<path d="M0 0 C0.99 0.33 1.98 0.66 3 1 C3.66 1 4.32 1 5 1 C3.63016497 4.16115776 3.0109362 4.9927092 0 7 C0 4.69 0 2.38 0 0 Z " fill="#3A221C" transform="translate(321,214)"/>
<path d="M0 0 C3.0916909 2.52956528 3.90931332 5.22454612 5 9 C2.5 7.3125 2.5 7.3125 0 5 C-0.3125 2.25 -0.3125 2.25 0 0 Z " fill="#A87973" transform="translate(228,382)"/>
<path d="M0 0 C0.33 0.99 0.66 1.98 1 3 C-0.9375 5.6875 -0.9375 5.6875 -3 8 C-3.99 7.67 -4.98 7.34 -6 7 C-4.02 4.69 -2.04 2.38 0 0 Z " fill="#594A41" transform="translate(341,195)"/>
<path d="M0 0 C2.16874252 0.50603992 3.99967627 0.99983813 6 2 C6.625 4.0625 6.625 4.0625 7 6 C6.01 6 5.02 6 4 6 C3.71125 5.195625 3.4225 4.39125 3.125 3.5625 C2.26737432 0.8673532 2.26737432 0.8673532 0 0 Z " fill="#951413" transform="translate(205,342)"/>
<path d="M0 0 C0.66 0.33 1.32 0.66 2 1 C0.02 3.31 -1.96 5.62 -4 8 C-4.33 6.68 -4.66 5.36 -5 4 C-3.35 2.68 -1.7 1.36 0 0 Z " fill="#130703" transform="translate(343,190)"/>
<path d="M0 0 C0 0.99 0 1.98 0 3 C-2 4.6875 -2 4.6875 -4 6 C-4.33 4.68 -4.66 3.36 -5 2 C-3.35 1.34 -1.7 0.68 0 0 Z " fill="#372B25" transform="translate(351,185)"/>
<path d="M0 0 C2.34058637 2.12780579 3.70700306 4.11562221 5 7 C3.68 7 2.36 7 1 7 C0.67 4.69 0.34 2.38 0 0 Z " fill="#170703" transform="translate(352,429)"/>
<path d="M0 0 C0.66 0.33 1.32 0.66 2 1 C1.67 3.31 1.34 5.62 1 8 C-0.89213369 5.61426621 -2.02391783 3.92824652 -3 1 C-2.01 0.67 -1.02 0.34 0 0 Z " fill="#550D09" transform="translate(258,427)"/>
<path d="M0 0 C2.34058637 2.12780579 3.70700306 4.11562221 5 7 C4.34 7.66 3.68 8.32 3 9 C0 3.375 0 3.375 0 0 Z " fill="#8C6557" transform="translate(250,421)"/>
<path d="M0 0 C1.5 1.3125 1.5 1.3125 3 3 C3 3.99 3 4.98 3 6 C3.66 6 4.32 6 5 6 C4.67 6.66 4.34 7.32 4 8 C3.34 8 2.68 8 2 8 C0.23537317 4.91190305 0 3.76687864 0 0 Z " fill="#845F58" transform="translate(272,296)"/>
<path d="M0 0 C0.33 0.99 0.66 1.98 1 3 C-0.9375 5.6875 -0.9375 5.6875 -3 8 C-3.66 7.67 -4.32 7.34 -5 7 C-3.47793991 4.37098712 -2.15634036 2.15634036 0 0 Z " fill="#6D574B" transform="translate(309,232)"/>
<path d="M0 0 C0.33 0.99 0.66 1.98 1 3 C-0.65 4.65 -2.3 6.3 -4 8 C-3.50168276 4.31245243 -2.89932357 2.39509338 0 0 Z " fill="#71534A" transform="translate(320,219)"/>
</svg>
